<svg version="1.1" id="Layer_1" xmlns="http://www.w3.org/2000/svg" xmlns:xlink="http://www.w3.org/1999/xlink" x="0px" y="0px"
	 width="100%" viewBox="0 0 1024 1024" enable-background="new 0 0 1024 1024" xml:space="preserve">
<path fill="#000000" opacity="1.000000" stroke="none" 
	d="
M373.954071,368.875397 
	C368.968079,372.289825 367.180847,372.080627 362.569916,367.366913 
	C348.236328,352.713806 333.955902,338.008667 319.663696,323.315186 
	C294.914642,297.871216 270.174225,272.418854 245.423325,246.976669 
	C243.210403,244.701935 241.068390,242.388016 239.540451,239.564926 
	C236.062302,233.138565 236.678467,227.960846 241.743500,222.756332 
	C272.193329,191.467972 302.664642,160.200546 333.125122,128.922592 
	C342.890747,118.894920 352.715393,108.923141 362.361786,98.781929 
	C365.207550,95.790207 368.224396,93.432915 372.358612,95.022598 
	C376.677216,96.683189 376.059326,100.952652 376.082489,104.520462 
	C376.202515,123.018806 376.207367,141.517960 376.228882,160.016846 
	C376.238922,168.644974 376.208618,168.392059 384.758240,168.179520 
	C398.251282,167.844101 411.753632,167.874725 425.252228,167.772644 
	C468.243042,167.447495 511.233521,166.995483 554.224976,166.855331 
	C591.553406,166.733627 628.370361,170.577042 663.867554,182.959366 
	C698.320740,194.977539 729.422485,212.435608 754.549805,239.484406 
	C780.079407,266.966339 795.169861,299.686340 803.362183,335.938507 
	C810.345215,366.839020 812.297791,398.181549 811.102783,429.709656 
	C809.909241,461.198883 806.190491,492.353058 796.753113,522.633545 
	C779.571533,577.761841 744.237488,616.276428 691.269653,638.921814 
	C662.745300,651.116943 633.018738,658.502319 602.292175,662.434387 
	C572.279541,666.275146 542.145569,666.004944 512.005798,666.072144 
	C469.341675,666.167236 426.677460,666.243835 384.013306,666.301697 
	C377.371307,666.310669 377.340424,666.245483 377.338715,672.888184 
	C377.317596,754.883911 377.309692,836.879578 377.287201,918.875305 
	C377.284698,928.002441 373.002899,931.936035 363.995789,931.415833 
	C361.259094,931.257751 359.319458,929.975037 357.517853,928.133362 
	C313.351379,882.985901 269.144440,837.878052 225.033203,792.676758 
	C218.025864,785.496277 214.556122,776.925171 214.586716,766.547180 
	C214.788620,698.051392 214.705063,629.554626 214.681656,561.058228 
	C214.680389,557.363586 214.892441,553.752197 216.232407,550.258789 
	C220.542786,539.020996 227.277878,534.172424 239.357651,534.102295 
	C278.188080,533.876770 317.025604,534.129822 355.847931,533.467285 
	C391.008453,532.867249 426.171875,532.076660 461.316162,533.108704 
	C487.512726,533.877991 513.604553,533.054749 539.639099,530.554260 
	C556.534119,528.931580 573.392700,526.477112 589.241089,519.920410 
	C617.906250,508.061218 636.703064,487.451416 644.130981,456.995483 
	C651.961121,424.890778 651.730408,392.998169 640.814941,361.616028 
	C634.171387,342.515656 621.214783,328.413025 603.474731,319.017670 
	C584.072937,308.742279 563.432617,303.072601 541.218445,303.182587 
	C506.388733,303.355011 471.556366,303.069244 436.725555,302.891479 
	C418.898102,302.800446 401.071747,302.503906 383.244537,302.338745 
	C376.247162,302.273895 376.242249,302.321808 376.246948,309.541962 
	C376.257904,326.374390 376.259430,343.206848 376.300385,360.039215 
	C376.307770,363.073792 376.258789,366.053314 373.954071,368.875397 
z"/>
</svg>